<?xml version="1.0" encoding="UTF-8" standalone="no"?>
<svg
   width="100mm"
   height="73mm"
   viewBox="0 0 100 73"
   version="1.1"
   id="svg11"
   sodipodi:docname="logo.svg"
   inkscape:version="1.3.2 (091e20ef0f, 2023-11-25)"
   xmlns:inkscape="http://www.inkscape.org/namespaces/inkscape"
   xmlns:sodipodi="http://sodipodi.sourceforge.net/DTD/sodipodi-0.dtd"
   xmlns="http://www.w3.org/2000/svg"
   xmlns:svg="http://www.w3.org/2000/svg">
  <defs
     id="defs11" />
  <sodipodi:namedview
     id="namedview11"
     pagecolor="#ffffff"
     bordercolor="#000000"
     borderopacity="0.25"
     inkscape:showpageshadow="2"
     inkscape:pageopacity="0.0"
     inkscape:pagecheckerboard="0"
     inkscape:deskcolor="#d1d1d1"
     inkscape:document-units="mm"
     inkscape:zoom="1.7092083"
     inkscape:cx="188.97638"
     inkscape:cy="138.07562"
     inkscape:window-width="1258"
     inkscape:window-height="1032"
     inkscape:window-x="8"
     inkscape:window-y="32"
     inkscape:window-maximized="1"
     inkscape:current-layer="svg11" />
  <path
     d="M 64.9834,45.808 A 28.5,28.5 0 0 1 25.7564,36.5479 L 50,21.5644 Z"
     stroke-width="1"
     stroke-linejoin="round"
     id="path1"
     style="fill:none;stroke:#000000;stroke-width:0.3;stroke-dasharray:none" />
  <path
     d="m 25.7565,36.5479 -7.877,4.8683 m -2.5333,4.708 a 5.3463,5.3463 0 0 0 2.5332,-4.708 5.3463,5.3463 0 0 0 -5.3439,0.1602 5.3463,5.3463 0 0 0 -2.5331,4.708 5.3463,5.3463 0 0 0 5.3438,-0.1602 z M 66.7514,12.315 H 63.2149 M 54.3424,16.8021 57.877,16.6961 50,21.5644"
     stroke-width="1"
     id="path2"
     style="fill:none;stroke:#000000;stroke-width:0.3;stroke-dasharray:none" />
  <path
     d="m 50,59.3245 v -37.76 l 5.723,2e-4 c 2.557,3e-4 4.6297,2.0731 4.6297,4.63 0,2.557 -2.0727,4.6298 -4.6297,4.6298"
     stroke-width="1"
     stroke-linejoin="round"
     id="path3"
     style="fill:none;stroke:#000000;stroke-width:0.3;stroke-dasharray:none" />
  <path
     d="m 46.5078,45.5533 -0.6131,4.214 m -4.8351,-1.1416 1.3376,-4.0484 m -3.8833,-1.6649 -2.0179,3.7498 m -4.1528,-2.7262 2.6415,-3.3467 m -3.0775,-2.8946 -3.1807,2.8355 m -13.0174,3.3201 a 1.7682,1.7686 0 0 1 -1.7682,1.7685 1.7682,1.7686 0 0 1 -1.7682,-1.7685 1.7682,1.7686 0 0 1 1.7682,-1.7686 1.7682,1.7686 0 0 1 1.7682,1.7686 z M 51.7682,61.0931 A 1.7682,1.7686 0 0 1 50,62.8617 1.7682,1.7686 0 0 1 48.2317,61.0931 1.7682,1.7686 0 0 1 50,59.3245 1.7682,1.7686 0 0 1 51.7682,61.0931 Z M 64.9831,17.62 v -7.0736"
     stroke-width="1"
     id="path4"
     style="fill:none;stroke:#000000;stroke-width:0.3;stroke-dasharray:none" />
  <path
     d="M 64.9835,21.5645 V 45.808 c -1e-4,4.1376 -3.3542,7.4917 -7.4918,7.4917 C 53.3541,53.2997 50,49.9456 50,45.8054 l 5.723,0.002 c 4.1378,0 7.4922,-3.3544 7.4922,-7.4921 0,-4.1379 -3.3544,-7.4922 -7.4922,-7.4922 L 50,30.824 c -3.2086,10e-4 -6.1889,-1.663 -7.8771,-4.3916"
     stroke-width="1"
     stroke-linejoin="round"
     id="path5"
     style="fill:none;stroke:#000000;stroke-width:0.3;stroke-dasharray:none" />
  <path
     d="m 50,36.556 c -1.126,1.8223 -2.6815,3.4174 -4.6276,4.6201 -6.6947,4.1376 -15.4759,2.0646 -19.6134,-4.63"
     stroke-width="1"
     id="path6"
     style="fill:none;stroke:#000000;stroke-width:0.3;stroke-dasharray:none" />
  <path
     d="M 50,45.8054 C 48.1736,44.6789 46.575,43.1275 45.37,41.1779 41.2324,34.4832 43.3054,25.702 50,21.5644 m -21.3997,7.8085 c 0.672,-0.4156 1.5538,-0.2078 1.9694,0.4643 0.4153,0.6722 0.2078,1.5537 -0.4643,1.9694 -0.672,0.4156 -1.5537,0.2077 -1.9694,-0.4643 0.4153,0.6723 0.2078,1.5538 -0.4642,1.9694 -0.672,0.4157 -1.5538,0.2078 -1.9694,-0.4642 -0.4153,-0.6723 -0.2078,-1.5538 0.4642,-1.9694 m 1.9694,0.4642 -0.7525,-1.2169 m 9.1557,-2.7878 c -0.1813,0.769 -0.9517,1.2456 -1.7208,1.0643 -0.7692,-0.1813 -1.2457,-0.9517 -1.0644,-1.7208 0.1813,-0.7691 0.9518,-1.2456 1.7209,-1.0643 2.0134,0.4746 3.2609,2.4916 2.7865,4.505 -0.4746,2.0134 -2.4916,3.2608 -4.505,2.7862 -2.0135,-0.4746 -3.261,-2.4916 -2.7866,-4.505"
     stroke-width="1"
     id="path7"
     style="fill:none;stroke:#000000;stroke-width:0.3;stroke-dasharray:none" />
  <path
     d="m 32.6915,27.3353 c 0.769,0.1813 1.2456,0.9518 1.0643,1.7209 -0.1813,0.769 -0.9517,1.2456 -1.7208,1.0642 -0.7691,-0.1813 -1.2456,-0.9517 -1.0644,-1.7208 m 1.7209,-1.0643 -2.889,-0.681 a 0.8842,0.8842 0 0 0 -1.0634,0.6578 0.8846,0.8846 0 0 0 0.6573,1.0637 0.8842,0.8842 0 0 0 1.0635,-0.6577 l 0.545,-2.312 -0.5448,2.3114 a 1.4264,1.4264 0 0 1 -0.6434,0.903 l -4.8693,3.0118 m 14.0278,-8.177 c 0.1813,-0.7691 0.9518,-1.2456 1.721,-1.0643 0.769,0.1813 1.2455,0.9517 1.0643,1.7208 -0.1813,0.7691 -0.9518,1.2456 -1.7209,1.0643 -0.7691,-0.1813 -1.2456,-0.9518 -1.0644,-1.7208 z m 8.288,-2.7519 c -0.1813,0.769 -0.9518,1.2456 -1.7209,1.0643 -0.769,-0.1813 -1.2456,-0.9518 -1.0644,-1.7208 0.1813,-0.7692 0.9518,-1.2457 1.721,-1.0643"
     stroke-width="1"
     id="path8"
     style="fill:none;stroke:#000000;stroke-width:0.3;stroke-dasharray:none" />
  <path
     d="m 42.049,21.0616 c 0.672,-0.4157 1.5537,-0.2078 1.9693,0.4642 0.4153,0.6723 0.2078,1.5538 -0.4642,1.9694 -0.672,0.4157 -1.5538,0.2078 -1.9694,-0.4642 -0.4153,-0.6723 -0.2078,-1.5538 0.4642,-1.9694 z m -5.1792,2.5062 1.3926,0.3283 c 0.7691,0.1813 1.2457,0.9518 1.0644,1.7208 -0.1813,0.7692 -0.9517,1.2457 -1.7208,1.0643 -0.7692,-0.1813 -1.2457,-0.9517 -1.0644,-1.7208 l 0.6667,-2.8284 a 0.5468,0.5468 0 0 0 -0.4061,-0.6575 0.54662543,0.54662543 0 0 0 -0.2512,1.064"
     stroke-width="1"
     id="path9"
     style="fill:none;stroke:#000000;stroke-width:0.3;stroke-dasharray:none" />
  <path
     d="m 42.0698,21.0489 1.512,-0.9362 1.505,2.4338 m -11.2926,2.3652 0.3414,-1.4506"
     stroke-width="1"
     id="path10"
     style="fill:none;stroke:#000000;stroke-width:0.3;stroke-dasharray:none" />
  <path
     d="M 36.766,27.696 35.252,25.2595"
     stroke-width="1"
     id="path11"
     style="fill:none;stroke:#000000;stroke-width:0.3;stroke-dasharray:none" />
</svg>
